<svg xmlns="http://www.w3.org/2000/svg" width="32" height="32" fill="none" viewBox="0 0 32 32"><rect width="32" height="32" fill="#006FEE" rx="16"/><path fill="#fff" d="M10.7969 10.4202C10.7969 7.62658 13.068 5.35547 15.8616 5.35547C18.6551 5.35547 20.9262 7.62658 20.9262 10.4202C20.9156 13.1604 18.7724 15.3782 16.0428 15.4742H15.9682C15.9042 15.4635 15.8189 15.4635 15.7336 15.4742C12.94 15.3782 10.7969 13.1604 10.7969 10.4202Z"/><path fill="#fff" d="M10.4555 18.3092C13.4517 16.326 18.3031 16.326 21.2779 18.3092C22.6214 19.2048 23.3571 20.4204 23.3677 21.7319C23.3677 23.054 22.6214 24.2695 21.2779 25.1758C19.7851 26.1781 17.8232 26.6793 15.8613 26.6793C13.8994 26.6793 11.9376 26.1781 10.4448 25.1758C9.10136 24.2802 8.35498 23.0647 8.35498 21.7532C8.35498 20.4417 9.10136 19.2155 10.4555 18.3092Z"/></svg>