<svg xmlns="http://www.w3.org/2000/svg" width="286" height="104" fill="none" viewBox="0 0 143 52"><g clip-path="url(#clip0_4643_30700)"><path fill="#000" d="M43.05 21.5037H36.981C32.004 21.5037 27.951 17.4507 27.951 12.4737V6.40469C27.951 5.24969 27.006 4.30469 25.851 4.30469H16.947C10.479 4.30469 5.25 8.50469 5.25 16.0017V34.6077C5.25 42.1047 10.479 46.3047 16.947 46.3047H33.453C39.921 46.3047 45.15 42.1047 45.15 34.6077V23.6037C45.15 22.4487 44.205 21.5037 43.05 21.5037ZM26.04 32.8227L22.134 36.7287C21.651 37.2117 20.979 37.4847 20.265 37.4847C19.551 37.4847 18.9 37.2117 18.396 36.7287L14.49 32.8227C13.629 31.9617 13.482 30.5127 14.175 29.5047L15.96 26.8167C16.401 26.1237 17.325 25.6407 18.144 25.6407H22.365C23.184 25.6407 24.087 26.1237 24.549 26.8167L26.355 29.5047C27.006 30.5127 26.88 31.9617 26.04 32.8227Z"/><path fill="#006FEE" d="M36.6031 18.6071C38.5981 18.6281 41.3701 18.6281 43.7431 18.6281C44.9401 18.6281 45.5701 17.2211 44.7301 16.3811C41.7061 13.3361 36.2881 7.85509 33.1801 4.74709C32.3191 3.88609 30.8281 4.47409 30.8281 5.67109V13.0001C30.8281 16.0661 33.4321 18.6071 36.6031 18.6071Z"/><path fill="#000" d="M53.2502 23.1855V9.46555H57.6798C58.7513 9.46555 59.6267 9.64195 60.3062 9.99475C60.9857 10.3475 61.4887 10.831 61.8154 11.4451C62.1421 12.0593 62.3054 12.7387 62.3054 13.4835C62.3054 14.3459 62.0702 15.1234 61.5998 15.8159C61.1425 16.5085 60.4238 16.9985 59.4438 17.2859L62.4426 23.1855H60.5022L57.719 17.5211H57.6014H54.8966V23.1855H53.2502ZM54.8966 16.2275H57.5622C58.6206 16.2275 59.3915 15.9727 59.875 15.4631C60.3585 14.9535 60.6002 14.3002 60.6002 13.5031C60.6002 12.693 60.3585 12.0527 59.875 11.5823C59.4046 11.0989 58.6271 10.8571 57.5426 10.8571H54.8966V16.2275ZM65.7702 11.3079C65.4435 11.3079 65.1691 11.2034 64.947 10.9943C64.7379 10.7722 64.6334 10.4978 64.6334 10.1711C64.6334 9.85755 64.7379 9.59621 64.947 9.38715C65.1691 9.17808 65.4435 9.07355 65.7702 9.07355C66.0838 9.07355 66.3516 9.17808 66.5738 9.38715C66.7959 9.59621 66.907 9.85755 66.907 10.1711C66.907 10.4978 66.7959 10.7722 66.5738 10.9943C66.3516 11.2034 66.0838 11.3079 65.7702 11.3079ZM64.947 23.1855V13.4639H66.5934V23.1855H64.947ZM73.184 23.4207C72.0211 23.4207 71.0541 23.1267 70.2832 22.5387C69.5123 21.9507 69.0615 21.1537 68.9308 20.1475H70.6164C70.7209 20.6571 70.9888 21.1014 71.42 21.4803C71.8643 21.8462 72.4588 22.0291 73.2036 22.0291C73.8962 22.0291 74.4058 21.8854 74.7324 21.5979C75.0591 21.2974 75.2224 20.9446 75.2224 20.5395C75.2224 19.9515 75.0068 19.5595 74.5756 19.3635C74.1575 19.1675 73.563 18.9911 72.792 18.8343C72.2694 18.7298 71.7467 18.5795 71.224 18.3835C70.7013 18.1875 70.2636 17.9131 69.9108 17.5603C69.558 17.1945 69.3816 16.7175 69.3816 16.1295C69.3816 15.2802 69.6952 14.5877 70.3224 14.0519C70.9627 13.5031 71.8251 13.2287 72.9096 13.2287C73.9419 13.2287 74.7847 13.4901 75.438 14.0127C76.1044 14.5223 76.4899 15.2541 76.5944 16.2079H74.9676C74.9023 15.7114 74.6867 15.3259 74.3208 15.0515C73.968 14.7641 73.4911 14.6203 72.89 14.6203C72.302 14.6203 71.8447 14.7445 71.518 14.9927C71.2044 15.241 71.0476 15.5677 71.0476 15.9727C71.0476 16.3647 71.2501 16.6718 71.6552 16.8939C72.0734 17.1161 72.6352 17.3055 73.3408 17.4623C73.9419 17.593 74.5103 17.7563 75.046 17.9523C75.5948 18.1353 76.0391 18.4162 76.3788 18.7951C76.7316 19.161 76.908 19.6967 76.908 20.4023C76.9211 21.2778 76.5879 22.003 75.9084 22.5779C75.242 23.1398 74.3339 23.4207 73.184 23.4207ZM79.26 23.1855V9.07355H80.9064V17.5603L84.8852 13.4639H86.904L82.592 17.8543L87.4528 23.1855H85.3556L80.9064 18.1483V23.1855H79.26Z"/><path fill="#006FEE" d="M53.1326 45.8652V32.1452H58.1698C59.2674 32.1452 60.169 32.3347 60.8746 32.7136C61.5933 33.0795 62.129 33.5826 62.4818 34.2228C62.8346 34.85 63.011 35.5491 63.011 36.32C63.011 37.1563 62.7889 37.9207 62.3446 38.6132C61.9134 39.3058 61.2339 39.8088 60.3062 40.1224L63.1482 45.8652H60.267L57.719 40.4556H55.6414V45.8652H53.1326ZM55.6414 38.6132H58.013C58.8493 38.6132 59.4634 38.4107 59.8554 38.0056C60.2474 37.6006 60.4434 37.0648 60.4434 36.3984C60.4434 35.7451 60.2474 35.2224 59.8554 34.8304C59.4765 34.4384 58.8558 34.2424 57.9934 34.2424H55.6414V38.6132ZM65.3443 45.8652V32.1452H74.3015V34.164H67.8531V37.9272H73.7135V39.8872H67.8531V43.8464H74.3015V45.8652H65.3443ZM82.6732 46.1004C81.3796 46.1004 80.2493 45.8064 79.2824 45.2184C78.3154 44.6304 77.5641 43.8138 77.0284 42.7684C76.4926 41.71 76.2248 40.4818 76.2248 39.0836C76.2248 37.6724 76.4992 36.4311 77.048 35.3596C77.6098 34.2751 78.4004 33.4323 79.4196 32.8312C80.4518 32.2171 81.6736 31.91 83.0848 31.91C84.692 31.91 86.0248 32.2955 87.0832 33.0664C88.1416 33.8374 88.8276 34.9023 89.1412 36.2612H86.3384C86.1293 35.621 85.7504 35.1244 85.2016 34.7716C84.6528 34.4058 83.9472 34.2228 83.0848 34.2228C81.7128 34.2228 80.6544 34.6606 79.9096 35.536C79.1648 36.3984 78.7924 37.5875 78.7924 39.1032C78.7924 40.619 79.1582 41.795 79.89 42.6312C80.6348 43.4544 81.6409 43.866 82.9084 43.866C84.1497 43.866 85.084 43.5328 85.7112 42.8664C86.3514 42.187 86.7369 41.2984 86.8676 40.2008H83.3984V38.3192H89.396V45.8652H87.0832L86.8872 44.062C86.4429 44.7154 85.8876 45.2184 85.2212 45.5712C84.5548 45.924 83.7054 46.1004 82.6732 46.1004ZM91.8349 45.8652V32.1452H94.3437V45.8652H91.8349ZM101.687 46.1004C100.681 46.1004 99.7926 45.9306 99.0217 45.5908C98.2508 45.238 97.6432 44.7415 97.1989 44.1012C96.7546 43.4479 96.526 42.6574 96.5129 41.7296H99.1589C99.185 42.3699 99.4137 42.9122 99.8449 43.3564C100.289 43.7876 100.897 44.0032 101.668 44.0032C102.334 44.0032 102.863 43.8464 103.255 43.5328C103.647 43.2062 103.843 42.775 103.843 42.2392C103.843 41.6774 103.667 41.2396 103.314 40.926C102.974 40.6124 102.517 40.3576 101.942 40.1616C101.367 39.9656 100.753 39.7566 100.1 39.5344C99.0413 39.1686 98.2312 38.6982 97.6693 38.1232C97.1205 37.5483 96.8461 36.7839 96.8461 35.83C96.833 35.0199 97.0225 34.3274 97.4145 33.7524C97.8196 33.1644 98.3684 32.7136 99.0609 32.4C99.7535 32.0734 100.551 31.91 101.452 31.91C102.367 31.91 103.17 32.0734 103.863 32.4C104.569 32.7267 105.117 33.184 105.509 33.772C105.914 34.36 106.13 35.0591 106.156 35.8692H103.471C103.458 35.3858 103.268 34.9611 102.903 34.5952C102.55 34.2163 102.053 34.0268 101.413 34.0268C100.864 34.0138 100.4 34.151 100.021 34.4384C99.6555 34.7128 99.4725 35.1179 99.4725 35.6536C99.4725 36.111 99.6162 36.4768 99.9037 36.7512C100.191 37.0126 100.583 37.2347 101.08 37.4176C101.576 37.6006 102.145 37.7966 102.785 38.0056C103.464 38.2408 104.085 38.5152 104.647 38.8288C105.209 39.1424 105.66 39.5606 105.999 40.0832C106.339 40.5928 106.509 41.2527 106.509 42.0628C106.509 42.7815 106.326 43.4479 105.96 44.062C105.594 44.6762 105.052 45.1727 104.333 45.5516C103.615 45.9175 102.733 46.1004 101.687 46.1004ZM111.72 45.8652V34.164H107.722V32.1452H118.247V34.164H114.229V45.8652H111.72ZM120.106 45.8652V32.1452H125.143C126.24 32.1452 127.142 32.3347 127.848 32.7136C128.566 33.0795 129.102 33.5826 129.455 34.2228C129.808 34.85 129.984 35.5491 129.984 36.32C129.984 37.1563 129.762 37.9207 129.318 38.6132C128.886 39.3058 128.207 39.8088 127.279 40.1224L130.121 45.8652H127.24L124.692 40.4556H122.614V45.8652H120.106ZM122.614 38.6132H124.986C125.822 38.6132 126.436 38.4107 126.828 38.0056C127.22 37.6006 127.416 37.0648 127.416 36.3984C127.416 35.7451 127.22 35.2224 126.828 34.8304C126.45 34.4384 125.829 34.2424 124.966 34.2424H122.614V38.6132ZM135.386 45.8652V40.9848L130.78 32.1452H133.622L136.66 38.476L139.679 32.1452H142.482L137.895 40.9848V45.8652H135.386Z"/></g><defs><clipPath id="clip0_4643_30700"><rect width="142.8" height="51.415" fill="#fff"/></clipPath></defs></svg>