<svg xmlns="http://www.w3.org/2000/svg" width="51" height="51" fill="none" viewBox="0 0 51 51"><path fill="#000" d="M43.05 21.5037H36.981C32.004 21.5037 27.951 17.4507 27.951 12.4737V6.40469C27.951 5.24969 27.006 4.30469 25.851 4.30469H16.947C10.479 4.30469 5.25 8.50469 5.25 16.0017V34.6077C5.25 42.1047 10.479 46.3047 16.947 46.3047H33.453C39.921 46.3047 45.15 42.1047 45.15 34.6077V23.6037C45.15 22.4487 44.205 21.5037 43.05 21.5037ZM26.04 32.8227L22.134 36.7287C21.651 37.2117 20.979 37.4847 20.265 37.4847C19.551 37.4847 18.9 37.2117 18.396 36.7287L14.49 32.8227C13.629 31.9617 13.482 30.5127 14.175 29.5047L15.96 26.8167C16.401 26.1237 17.325 25.6407 18.144 25.6407H22.365C23.184 25.6407 24.087 26.1237 24.549 26.8167L26.355 29.5047C27.006 30.5127 26.88 31.9617 26.04 32.8227Z"/><path fill="#006FEE" d="M36.6031 18.6071C38.5981 18.6281 41.3701 18.6281 43.7431 18.6281C44.9401 18.6281 45.5701 17.2211 44.7301 16.3811C41.7061 13.3361 36.2881 7.85509 33.1801 4.74709C32.3191 3.88609 30.8281 4.47409 30.8281 5.67109V13.0001C30.8281 16.0661 33.4321 18.6071 36.6031 18.6071Z"/></svg>